<mxfile host="app.diagrams.net" modified="2023-12-20T13:34:13.027Z" agent="Mozilla/5.0 (Windows NT 10.0; Win64; x64) AppleWebKit/537.36 (KHTML, like Gecko) Chrome/120.0.0.0 Safari/537.36" etag="OThYb41QFwKiOKPHT8Hd" version="22.1.11" type="github">
  <diagram name="Page-1" id="e7e014a7-5840-1c2e-5031-d8a46d1fe8dd">
    <mxGraphModel dx="560" dy="1483" grid="1" gridSize="10" guides="1" tooltips="1" connect="1" arrows="1" fold="1" page="1" pageScale="1" pageWidth="1169" pageHeight="826" background="none" math="0" shadow="0">
      <root>
        <mxCell id="0" />
        <mxCell id="1" parent="0" />
        <mxCell id="SQg0XDpjlxG6kFOg6IQ--44" value="Input Validate" style="rounded=1;whiteSpace=wrap;html=1;fontSize=16;" vertex="1" parent="1">
          <mxGeometry x="150.5" y="-590" width="120" height="60" as="geometry" />
        </mxCell>
        <mxCell id="SQg0XDpjlxG6kFOg6IQ--45" value="MediaInfo" style="rounded=1;whiteSpace=wrap;html=1;fontSize=16;" vertex="1" parent="1">
          <mxGeometry x="150.5" y="-490" width="120" height="60" as="geometry" />
        </mxCell>
        <mxCell id="SQg0XDpjlxG6kFOg6IQ--46" value="DynamoDB Update" style="rounded=1;whiteSpace=wrap;html=1;fontSize=16;" vertex="1" parent="1">
          <mxGeometry x="150.5" y="-400" width="120" height="60" as="geometry" />
        </mxCell>
        <mxCell id="SQg0XDpjlxG6kFOg6IQ--47" value="SNS Choice" style="rounded=1;whiteSpace=wrap;html=1;fontSize=16;" vertex="1" parent="1">
          <mxGeometry x="150" y="-310" width="120" height="60" as="geometry" />
        </mxCell>
        <mxCell id="SQg0XDpjlxG6kFOg6IQ--48" value="SNS Notification" style="rounded=1;whiteSpace=wrap;html=1;fontSize=16;" vertex="1" parent="1">
          <mxGeometry x="365.5" y="-270" width="120" height="60" as="geometry" />
        </mxCell>
        <mxCell id="SQg0XDpjlxG6kFOg6IQ--49" value="ProcessExecute" style="rounded=1;whiteSpace=wrap;html=1;fontSize=16;" vertex="1" parent="1">
          <mxGeometry x="150.5" y="-200" width="120" height="60" as="geometry" />
        </mxCell>
        <mxCell id="SQg0XDpjlxG6kFOg6IQ--56" value="" style="ellipse;shape=endState;fillColor=#000000;strokeColor=#ff0000" vertex="1" parent="1">
          <mxGeometry x="195.5" y="-110" width="30" height="30" as="geometry" />
        </mxCell>
        <mxCell id="SQg0XDpjlxG6kFOg6IQ--57" value="" style="endArrow=none;html=1;rounded=0;fontSize=12;startSize=8;endSize=8;curved=1;entryX=0.5;entryY=1;entryDx=0;entryDy=0;exitX=0.5;exitY=0;exitDx=0;exitDy=0;" edge="1" parent="1" source="SQg0XDpjlxG6kFOg6IQ--45" target="SQg0XDpjlxG6kFOg6IQ--44">
          <mxGeometry width="50" height="50" relative="1" as="geometry">
            <mxPoint x="245.5" y="-400" as="sourcePoint" />
            <mxPoint x="295.5" y="-450" as="targetPoint" />
          </mxGeometry>
        </mxCell>
        <mxCell id="SQg0XDpjlxG6kFOg6IQ--58" value="" style="endArrow=none;html=1;rounded=0;fontSize=12;startSize=8;endSize=8;curved=1;entryX=0.5;entryY=1;entryDx=0;entryDy=0;" edge="1" parent="1" source="SQg0XDpjlxG6kFOg6IQ--46" target="SQg0XDpjlxG6kFOg6IQ--45">
          <mxGeometry width="50" height="50" relative="1" as="geometry">
            <mxPoint x="245.5" y="-400" as="sourcePoint" />
            <mxPoint x="295.5" y="-450" as="targetPoint" />
          </mxGeometry>
        </mxCell>
        <mxCell id="SQg0XDpjlxG6kFOg6IQ--59" value="" style="endArrow=none;html=1;rounded=0;fontSize=12;startSize=8;endSize=8;curved=1;entryX=0.5;entryY=1;entryDx=0;entryDy=0;exitX=0.5;exitY=0;exitDx=0;exitDy=0;" edge="1" parent="1" source="SQg0XDpjlxG6kFOg6IQ--47" target="SQg0XDpjlxG6kFOg6IQ--46">
          <mxGeometry width="50" height="50" relative="1" as="geometry">
            <mxPoint x="245.5" y="-400" as="sourcePoint" />
            <mxPoint x="295.5" y="-450" as="targetPoint" />
          </mxGeometry>
        </mxCell>
        <mxCell id="SQg0XDpjlxG6kFOg6IQ--60" value="" style="endArrow=none;html=1;rounded=0;fontSize=12;startSize=8;endSize=8;curved=1;entryX=0.5;entryY=1;entryDx=0;entryDy=0;exitX=0.5;exitY=0;exitDx=0;exitDy=0;" edge="1" parent="1" source="SQg0XDpjlxG6kFOg6IQ--49" target="SQg0XDpjlxG6kFOg6IQ--47">
          <mxGeometry width="50" height="50" relative="1" as="geometry">
            <mxPoint x="245.5" y="-300" as="sourcePoint" />
            <mxPoint x="295.5" y="-350" as="targetPoint" />
          </mxGeometry>
        </mxCell>
        <mxCell id="SQg0XDpjlxG6kFOg6IQ--61" value="" style="endArrow=none;html=1;rounded=0;fontSize=12;startSize=8;endSize=8;curved=1;exitX=1;exitY=0.5;exitDx=0;exitDy=0;entryX=0;entryY=0.5;entryDx=0;entryDy=0;" edge="1" parent="1" source="SQg0XDpjlxG6kFOg6IQ--47" target="SQg0XDpjlxG6kFOg6IQ--48">
          <mxGeometry width="50" height="50" relative="1" as="geometry">
            <mxPoint x="245.5" y="-300" as="sourcePoint" />
            <mxPoint x="295.5" y="-350" as="targetPoint" />
          </mxGeometry>
        </mxCell>
        <mxCell id="SQg0XDpjlxG6kFOg6IQ--62" value="" style="endArrow=none;html=1;rounded=0;fontSize=12;startSize=8;endSize=8;curved=1;exitX=1;exitY=0.5;exitDx=0;exitDy=0;entryX=0;entryY=0.5;entryDx=0;entryDy=0;" edge="1" parent="1" source="SQg0XDpjlxG6kFOg6IQ--49" target="SQg0XDpjlxG6kFOg6IQ--48">
          <mxGeometry width="50" height="50" relative="1" as="geometry">
            <mxPoint x="245.5" y="-300" as="sourcePoint" />
            <mxPoint x="295.5" y="-350" as="targetPoint" />
          </mxGeometry>
        </mxCell>
        <mxCell id="SQg0XDpjlxG6kFOg6IQ--66" value="" style="endArrow=none;html=1;rounded=0;fontSize=12;startSize=8;endSize=8;curved=1;entryX=0.5;entryY=1;entryDx=0;entryDy=0;exitX=0.5;exitY=0;exitDx=0;exitDy=0;" edge="1" parent="1" source="SQg0XDpjlxG6kFOg6IQ--44" target="SQg0XDpjlxG6kFOg6IQ--67">
          <mxGeometry width="50" height="50" relative="1" as="geometry">
            <mxPoint x="245.5" y="-400" as="sourcePoint" />
            <mxPoint x="215.5" y="-665" as="targetPoint" />
          </mxGeometry>
        </mxCell>
        <mxCell id="SQg0XDpjlxG6kFOg6IQ--67" value="" style="ellipse;shape=startState;fillColor=#000000;strokeColor=#ff0000;" vertex="1" parent="1">
          <mxGeometry x="195" y="-670" width="30" height="30" as="geometry" />
        </mxCell>
      </root>
    </mxGraphModel>
  </diagram>
</mxfile>
